<?xml version="1.0" encoding="UTF-8"?>
<!DOCTYPE svg PUBLIC "-//W3C//DTD SVG 1.1//EN" "http://www.w3.org/Graphics/SVG/1.1/DTD/svg11.dtd">
<svg xmlns="http://www.w3.org/2000/svg" version="1.1" width="256px" height="256px" style="shape-rendering:geometricPrecision; text-rendering:geometricPrecision; image-rendering:optimizeQuality; fill-rule:evenodd; clip-rule:evenodd" xmlns:xlink="http://www.w3.org/1999/xlink">
<g><path style="opacity:0.949" fill="#000000" d="M 25.5,-0.5 C 29.1667,-0.5 32.8333,-0.5 36.5,-0.5C 57.8766,5.42731 66.3766,19.4273 62,41.5C 53.419,60.8694 38.919,67.3694 18.5,61C -0.342074,49.4543 -4.84207,33.621 5,13.5C 10.1173,6.19923 16.9507,1.53257 25.5,-0.5 Z"/></g>
<g><path style="opacity:0.965" fill="#000000" d="M 255.5,137.5 C 255.5,176.833 255.5,216.167 255.5,255.5C 237.833,255.5 220.167,255.5 202.5,255.5C 202.107,220.138 201.274,184.805 200,149.5C 193.922,131.875 181.755,125.375 163.5,130C 154.268,133.566 148.101,140.066 145,149.5C 143.506,184.799 142.672,220.132 142.5,255.5C 125.167,255.5 107.833,255.5 90.5,255.5C 90.5,198.5 90.5,141.5 90.5,84.5C 108.167,84.5 125.833,84.5 143.5,84.5C 143.334,90.8421 143.5,97.1754 144,103.5C 152.519,92.1502 163.686,84.6502 177.5,81C 198.681,76.5689 218.015,80.5689 235.5,93C 247.688,105.414 254.355,120.247 255.5,137.5 Z"/></g>
<g><path style="opacity:0.966" fill="#000000" d="M 58.5,255.5 C 40.5,255.5 22.5,255.5 4.5,255.5C 4.5,198.5 4.5,141.5 4.5,84.5C 22.5,84.5 40.5,84.5 58.5,84.5C 58.5,141.5 58.5,198.5 58.5,255.5 Z"/></g>
</svg>
