<?xml version="1.0" encoding="UTF-8"?>
<!DOCTYPE svg PUBLIC "-//W3C//DTD SVG 1.1//EN" "http://www.w3.org/Graphics/SVG/1.1/DTD/svg11.dtd">
<svg xmlns="http://www.w3.org/2000/svg" version="1.1" width="1000px" height="410px" style="shape-rendering:geometricPrecision; text-rendering:geometricPrecision; image-rendering:optimizeQuality; fill-rule:evenodd; clip-rule:evenodd" xmlns:xlink="http://www.w3.org/1999/xlink">
<g><path style="opacity:0.978" fill="#fafafa" d="M 222.5,129.5 C 222.381,135.281 219.381,137.948 213.5,137.5C 195.364,132.484 176.697,131.151 157.5,133.5C 153.369,134.32 149.369,135.32 145.5,136.5C 143.517,136.157 142.183,136.824 141.5,138.5C 140.009,140.282 138.342,141.948 136.5,143.5C 135.5,143.5 134.5,143.5 133.5,143.5C 133.5,144.5 133.5,145.5 133.5,146.5C 125.572,155.693 120.906,166.36 119.5,178.5C 117.501,199.707 118.668,220.707 123,241.5C 128.527,256.197 138.693,265.863 153.5,270.5C 158.119,271.828 163.119,272.494 168.5,272.5C 173.881,272.494 178.881,271.828 183.5,270.5C 184.791,270.737 185.791,270.404 186.5,269.5C 187.5,269.5 188.5,269.5 189.5,269.5C 189.5,255.5 189.5,241.5 189.5,227.5C 179.167,227.5 168.833,227.5 158.5,227.5C 158.5,227.167 158.5,226.833 158.5,226.5C 158.5,212.5 158.5,198.5 158.5,184.5C 158.833,184.5 159.167,184.5 159.5,184.5C 184.833,184.5 210.167,184.5 235.5,184.5C 236.167,184.5 236.833,184.5 237.5,184.5C 238.151,224.053 237.485,263.387 235.5,302.5C 222.954,310.241 209.288,315.241 194.5,317.5C 175.102,319.053 155.768,318.553 136.5,316C 131.286,314.632 126.286,312.799 121.5,310.5C 120.817,308.824 119.483,308.157 117.5,308.5C 106.703,303.967 97.3701,297.3 89.5,288.5C 89.2785,286.336 88.2785,284.67 86.5,283.5C 75.8578,268.255 69.5245,251.255 67.5,232.5C 65.9674,208.783 66.4674,185.116 69,161.5C 70.8125,153.895 73.3125,146.562 76.5,139.5C 78.2892,136.848 79.2892,133.848 79.5,130.5C 82.4719,125.908 85.4719,121.242 88.5,116.5C 90.5323,115.952 91.5323,114.619 91.5,112.5C 112.75,91.0354 138.583,81.7021 169,84.5C 184.416,84.0316 199.583,85.6983 214.5,89.5C 219.892,91.0297 224.892,93.363 229.5,96.5C 229.833,97.5 230.167,98.5 230.5,99.5C 229.136,103.389 228.302,107.389 228,111.5C 226.467,117.644 224.633,123.644 222.5,129.5 Z"/></g>
<g><path style="opacity:0.171" fill="#363636" d="M 496.5,93.5 C 480.464,92.8489 464.798,93.5156 449.5,95.5C 448.833,95.5 448.167,95.5 447.5,95.5C 447.804,94.8501 448.137,94.1835 448.5,93.5C 464.662,92.1734 480.662,92.1734 496.5,93.5 Z"/></g>
<g><path style="opacity:0.171" fill="#343434" d="M 787.5,93.5 C 795.493,92.8336 803.66,92.5003 812,92.5C 820.528,92.5021 828.695,93.1688 836.5,94.5C 836.167,94.5 835.833,94.5 835.5,94.5C 819.675,93.5036 803.675,93.1703 787.5,93.5 Z"/></g>
<g><path style="opacity:0.572" fill="#939393" d="M 608.5,94.5 C 592.5,94.5 576.5,94.5 560.5,94.5C 568.138,93.1689 576.138,92.5022 584.5,92.5C 592.862,92.5022 600.862,93.1689 608.5,94.5 Z"/></g>
<g><path style="opacity:0.982" fill="#fdfdfd" d="M 496.5,93.5 C 496.5,94.1667 496.833,94.5 497.5,94.5C 497.5,121.5 497.5,148.5 497.5,175.5C 518.167,175.5 538.833,175.5 559.5,175.5C 559.5,148.5 559.5,121.5 559.5,94.5C 559.833,94.5 560.167,94.5 560.5,94.5C 576.5,94.5 592.5,94.5 608.5,94.5C 608.833,94.5 609.167,94.5 609.5,94.5C 609.833,166.836 609.5,239.17 608.5,311.5C 592.672,313.464 576.672,314.131 560.5,313.5C 560.5,312.833 560.167,312.5 559.5,312.5C 559.5,281.5 559.5,250.5 559.5,219.5C 538.833,219.5 518.167,219.5 497.5,219.5C 497.5,250.5 497.5,281.5 497.5,312.5C 496.833,312.5 496.5,312.833 496.5,313.5C 480.464,314.151 464.798,313.484 449.5,311.5C 448.167,239.5 448.167,167.5 449.5,95.5C 464.798,93.5156 480.464,92.8489 496.5,93.5 Z"/></g>
<g><path style="opacity:0.981" fill="#fbfbfb" d="M 835.5,94.5 C 835.833,94.5 836.167,94.5 836.5,94.5C 836.167,118.509 836.5,142.509 837.5,166.5C 849.167,160.505 861.5,157.172 874.5,156.5C 880.366,157.737 886.366,158.737 892.5,159.5C 895.099,160.135 897.432,161.135 899.5,162.5C 900.183,164.176 901.517,164.843 903.5,164.5C 908.045,166.383 912.045,169.05 915.5,172.5C 915.738,175.069 917.071,176.735 919.5,177.5C 926.034,186.893 930.034,197.227 931.5,208.5C 932.833,226.5 932.833,244.5 931.5,262.5C 925.849,306.782 900.849,325.115 856.5,317.5C 852.666,316.837 848.999,315.837 845.5,314.5C 844.817,312.824 843.483,312.157 841.5,312.5C 835.714,311.024 830.547,308.357 826,304.5C 824.991,306.025 824.491,307.692 824.5,309.5C 822.952,309.821 822.285,310.821 822.5,312.5C 811.167,312.5 799.833,312.5 788.5,312.5C 788.5,239.833 788.5,167.167 788.5,94.5C 804.167,94.5 819.833,94.5 835.5,94.5 Z M 873.5,203.5 C 873.932,204.71 874.599,205.71 875.5,206.5C 876.151,207.091 876.818,207.757 877.5,208.5C 879.06,213.22 880.56,217.886 882,222.5C 883.287,236.886 882.454,250.886 879.5,264.5C 878.691,266.028 878.024,267.694 877.5,269.5C 875.675,272.753 873.008,275.087 869.5,276.5C 862.833,276.5 856.167,276.5 849.5,276.5C 845.463,274.918 841.463,273.252 837.5,271.5C 836.511,249.575 836.178,227.575 836.5,205.5C 843.23,201.755 850.564,200.088 858.5,200.5C 862.5,200.833 866.5,201.167 870.5,201.5C 871.602,202.176 872.602,202.842 873.5,203.5 Z"/></g>
<g><path style="opacity:0.047" fill="#363636" d="M 609.5,94.5 C 610.832,167.001 610.832,239.668 609.5,312.5C 601.33,313.803 592.997,314.47 584.5,314.5C 576.326,314.5 568.326,314.166 560.5,313.5C 576.672,314.131 592.672,313.464 608.5,311.5C 609.5,239.17 609.833,166.836 609.5,94.5 Z"/></g>
<g><path style="opacity:0.667" fill="#919191" d="M 787.5,93.5 C 803.675,93.1703 819.675,93.5036 835.5,94.5C 819.833,94.5 804.167,94.5 788.5,94.5C 788.5,167.167 788.5,239.833 788.5,312.5C 799.833,312.5 811.167,312.5 822.5,312.5C 822.285,310.821 822.952,309.821 824.5,309.5C 824.703,311.39 824.037,312.89 822.5,314C 810.591,314.821 798.757,314.654 787,313.5C 786.168,239.999 786.334,166.666 787.5,93.5 Z"/></g>
<g><path style="opacity:0.971" fill="#f4f4f4" d="M 307.5,108.5 C 307.285,110.179 307.952,111.179 309.5,111.5C 313.794,121.116 313.461,130.45 308.5,139.5C 306.721,140.67 305.721,142.336 305.5,144.5C 296.507,151.985 286.174,154.318 274.5,151.5C 271.522,150.52 269.189,148.853 267.5,146.5C 267.027,145.094 266.027,144.427 264.5,144.5C 264.068,143.29 263.401,142.29 262.5,141.5C 259.444,139.353 258.11,136.353 258.5,132.5C 258.5,127.167 258.5,121.833 258.5,116.5C 260.593,108.399 265.593,102.732 273.5,99.5C 286.766,94.8294 298.1,97.8294 307.5,108.5 Z"/></g>
<g><path style="opacity:0.114" fill="#939393" d="M 447.5,95.5 C 448.167,95.5 448.833,95.5 449.5,95.5C 448.167,167.5 448.167,239.5 449.5,311.5C 448.833,311.5 448.167,311.5 447.5,311.5C 446.167,239.5 446.167,167.5 447.5,95.5 Z"/></g>
<g><path style="opacity:0.004" fill="#353535" d="M 307.5,108.5 C 308.401,109.29 309.068,110.29 309.5,111.5C 307.952,111.179 307.285,110.179 307.5,108.5 Z"/></g>
<g><path style="opacity:0.027" fill="#1f1f1f" d="M 91.5,112.5 C 91.5323,114.619 90.5323,115.952 88.5,116.5C 89.1224,114.878 90.1224,113.545 91.5,112.5 Z"/></g>
<g><path style="opacity:0.325" fill="#969696" d="M 258.5,116.5 C 258.5,121.833 258.5,127.167 258.5,132.5C 257.191,130.429 256.525,127.929 256.5,125C 256.667,122.5 256.833,120 257,117.5C 257.383,116.944 257.883,116.611 258.5,116.5 Z"/></g>
<g><path style="opacity:0.161" fill="#939393" d="M 394.5,120.5 C 379.167,120.5 363.833,120.5 348.5,120.5C 355.803,119.169 363.47,118.502 371.5,118.5C 379.53,118.502 387.197,119.169 394.5,120.5 Z"/></g>
<g><path style="opacity:0.979" fill="#fbfbfb" d="M 348.5,120.5 C 363.833,120.5 379.167,120.5 394.5,120.5C 396.482,134.127 397.149,148.127 396.5,162.5C 406.833,162.5 417.167,162.5 427.5,162.5C 429.453,175.587 430.12,188.92 429.5,202.5C 428.833,202.5 428.5,202.833 428.5,203.5C 417.5,203.5 406.5,203.5 395.5,203.5C 395.169,224.34 395.503,245.007 396.5,265.5C 396.833,266.167 397.167,266.833 397.5,267.5C 397.157,269.483 397.824,270.817 399.5,271.5C 401.822,273.664 404.489,275.331 407.5,276.5C 415.067,277.196 422.734,277.863 430.5,278.5C 430.5,289.5 430.5,300.5 430.5,311.5C 429.5,312.5 428.5,313.5 427.5,314.5C 424.001,315.837 420.334,316.837 416.5,317.5C 396.935,321.607 378.935,318.273 362.5,307.5C 358.658,304.344 355.658,300.677 353.5,296.5C 352.744,293.997 351.744,291.663 350.5,289.5C 349.035,286.634 348.035,283.634 347.5,280.5C 347.5,254.833 347.5,229.167 347.5,203.5C 338.897,204.088 330.564,203.422 322.5,201.5C 321.191,191.179 321.191,180.846 322.5,170.5C 324.306,169.976 325.972,169.309 327.5,168.5C 333.774,166.349 340.108,164.682 346.5,163.5C 348.483,149.539 349.15,135.206 348.5,120.5 Z"/></g>
<g><path style="opacity:0.557" fill="#939393" d="M 348.5,120.5 C 349.15,135.206 348.483,149.539 346.5,163.5C 345.85,148.794 346.517,134.461 348.5,120.5 Z"/></g>
<g><path style="opacity:0.078" fill="#2e2e2e" d="M 222.5,129.5 C 223.359,136.99 220.359,139.657 213.5,137.5C 219.381,137.948 222.381,135.281 222.5,129.5 Z"/></g>
<g><path style="opacity:0.31" fill="#979797" d="M 145.5,136.5 C 144.713,138.104 143.38,138.771 141.5,138.5C 142.183,136.824 143.517,136.157 145.5,136.5 Z"/></g>
<g><path style="opacity:0.102" fill="#333333" d="M 79.5,130.5 C 79.2892,133.848 78.2892,136.848 76.5,139.5C 76.7108,136.152 77.7108,133.152 79.5,130.5 Z"/></g>
<g><path style="opacity:0.031" fill="#313131" d="M 308.5,139.5 C 308.279,141.664 307.279,143.33 305.5,144.5C 305.721,142.336 306.721,140.67 308.5,139.5 Z"/></g>
<g><path style="opacity:0.035" fill="#222222" d="M 262.5,141.5 C 263.401,142.29 264.068,143.29 264.5,144.5C 262.952,144.179 262.285,143.179 262.5,141.5 Z"/></g>
<g><path style="opacity:0.157" fill="#585858" d="M 264.5,144.5 C 266.027,144.427 267.027,145.094 267.5,146.5C 265.973,146.573 264.973,145.906 264.5,144.5 Z"/></g>
<g><path style="opacity:0.004" fill="#363636" d="M 136.5,143.5 C 135.5,144.5 134.5,145.5 133.5,146.5C 133.5,145.5 133.5,144.5 133.5,143.5C 134.5,143.5 135.5,143.5 136.5,143.5 Z"/></g>
<g><path style="opacity:0.975" fill="#f9f9f9" d="M 308.5,311.5 C 292.997,313.823 277.331,314.157 261.5,312.5C 260.509,263.209 260.176,213.875 260.5,164.5C 268.138,163.169 276.138,162.502 284.5,162.5C 292.997,162.53 301.33,163.197 309.5,164.5C 310.667,213.163 310.833,261.83 310,310.5C 309.617,311.056 309.117,311.389 308.5,311.5 Z"/></g>
<g><path style="opacity:0.628" fill="#939393" d="M 676.5,164.5 C 660.5,164.5 644.5,164.5 628.5,164.5C 636.138,163.169 644.138,162.502 652.5,162.5C 660.862,162.502 668.862,163.169 676.5,164.5 Z"/></g>
<g><path style="opacity:0.284" fill="#979797" d="M 899.5,162.5 C 901.38,162.229 902.713,162.896 903.5,164.5C 901.517,164.843 900.183,164.176 899.5,162.5 Z"/></g>
<g><path style="opacity:0.984" fill="#f9f9f9" d="M 628.5,164.5 C 644.5,164.5 660.5,164.5 676.5,164.5C 678.163,198.824 679.163,233.49 679.5,268.5C 680.787,271.776 682.787,274.442 685.5,276.5C 688.087,277.816 691.087,278.483 694.5,278.5C 697.913,278.483 700.913,277.816 703.5,276.5C 708.924,274.922 713.924,272.589 718.5,269.5C 718.833,269.5 719.167,269.5 719.5,269.5C 720.498,234.671 720.832,199.671 720.5,164.5C 735.833,164.5 751.167,164.5 766.5,164.5C 767.833,188.824 768.5,213.491 768.5,238.5C 768.5,263.509 767.833,288.176 766.5,312.5C 755.833,312.5 745.167,312.5 734.5,312.5C 734.737,311.209 734.404,310.209 733.5,309.5C 733.167,309.5 732.833,309.5 732.5,309.5C 732.5,308.5 732.5,307.5 732.5,306.5C 722.205,310.946 711.539,314.613 700.5,317.5C 688.5,318.833 676.5,318.833 664.5,317.5C 652.436,315.645 642.769,309.978 635.5,300.5C 634.078,296.66 632.411,292.993 630.5,289.5C 628.758,286.855 628.091,283.855 628.5,280.5C 628.5,241.833 628.5,203.167 628.5,164.5 Z"/></g>
<g><path style="opacity:0.114" fill="#363636" d="M 259.5,164.5 C 259.172,213.905 259.505,263.238 260.5,312.5C 259.167,288.176 258.5,263.509 258.5,238.5C 258.5,213.664 258.833,188.998 259.5,164.5 Z"/></g>
<g><path style="opacity:0.392" fill="#c5c5c5" d="M 259.5,164.5 C 259.833,164.5 260.167,164.5 260.5,164.5C 260.176,213.875 260.509,263.209 261.5,312.5C 261.167,312.5 260.833,312.5 260.5,312.5C 259.505,263.238 259.172,213.905 259.5,164.5 Z"/></g>
<g><path style="opacity:0.176" fill="#363636" d="M 427.5,162.5 C 428.5,162.5 429.5,162.5 430.5,162.5C 430.829,176.01 430.496,189.344 429.5,202.5C 430.12,188.92 429.453,175.587 427.5,162.5 Z"/></g>
<g><path style="opacity:0.486" fill="#939393" d="M 628.5,164.5 C 628.5,203.167 628.5,241.833 628.5,280.5C 627.167,261.512 626.5,242.178 626.5,222.5C 626.5,202.822 627.167,183.488 628.5,164.5 Z"/></g>
<g><path style="opacity:0.228" fill="#363636" d="M 766.5,163.5 C 750.833,163.5 735.167,163.5 719.5,163.5C 719.5,198.833 719.5,234.167 719.5,269.5C 719.167,269.5 718.833,269.5 718.5,269.5C 718.5,233.833 718.5,198.167 718.5,162.5C 734.675,162.17 750.675,162.504 766.5,163.5 Z"/></g>
<g><path style="opacity:0.773" fill="#c5c5c5" d="M 766.5,163.5 C 766.5,163.833 766.5,164.167 766.5,164.5C 751.167,164.5 735.833,164.5 720.5,164.5C 720.832,199.671 720.498,234.671 719.5,269.5C 719.5,234.167 719.5,198.833 719.5,163.5C 735.167,163.5 750.833,163.5 766.5,163.5 Z"/></g>
<g><path style="opacity:0.118" fill="#313131" d="M 327.5,168.5 C 325.972,169.309 324.306,169.976 322.5,170.5C 323.552,168.744 325.219,168.077 327.5,168.5 Z"/></g>
<g><path style="opacity:0.039" fill="#2d2d2d" d="M 915.5,172.5 C 917.183,173.853 918.516,175.52 919.5,177.5C 917.071,176.735 915.738,175.069 915.5,172.5 Z"/></g>
<g><path style="opacity:0.212" fill="#373737" d="M 497.5,94.5 C 498.498,120.995 498.831,147.661 498.5,174.5C 518.5,174.5 538.5,174.5 558.5,174.5C 558.169,147.661 558.502,120.995 559.5,94.5C 559.5,121.5 559.5,148.5 559.5,175.5C 538.833,175.5 518.167,175.5 497.5,175.5C 497.5,148.5 497.5,121.5 497.5,94.5 Z"/></g>
<g><path style="opacity:0.22" fill="#939393" d="M 235.5,184.5 C 210.167,184.5 184.833,184.5 159.5,184.5C 171.815,183.168 184.482,182.501 197.5,182.5C 210.518,182.501 223.185,183.168 235.5,184.5 Z"/></g>
<g><path style="opacity:0.607" fill="#939393" d="M 158.5,184.5 C 158.5,198.5 158.5,212.5 158.5,226.5C 157.17,219.867 156.503,212.867 156.5,205.5C 156.503,198.133 157.17,191.133 158.5,184.5 Z"/></g>
<g><path style="opacity:0.211" fill="#363636" d="M 237.5,184.5 C 238.499,223.663 238.832,262.996 238.5,302.5C 237.5,302.5 236.5,302.5 235.5,302.5C 237.485,263.387 238.151,224.053 237.5,184.5 Z"/></g>
<g><path style="opacity:0.004" fill="#3b3b3b" d="M 873.5,203.5 C 875.048,203.821 875.715,204.821 875.5,206.5C 874.599,205.71 873.932,204.71 873.5,203.5 Z"/></g>
<g><path style="opacity:0.154" fill="#363636" d="M 322.5,201.5 C 330.564,203.422 338.897,204.088 347.5,203.5C 347.5,229.167 347.5,254.833 347.5,280.5C 346.502,255.339 346.169,230.005 346.5,204.5C 338.5,204.5 330.5,204.5 322.5,204.5C 322.5,203.5 322.5,202.5 322.5,201.5 Z"/></g>
<g><path style="opacity:0.161" fill="#373737" d="M 428.5,203.5 C 418.013,204.494 407.346,204.828 396.5,204.5C 396.5,224.833 396.5,245.167 396.5,265.5C 395.503,245.007 395.169,224.34 395.5,203.5C 406.5,203.5 417.5,203.5 428.5,203.5 Z"/></g>
<g><path style="opacity:0.129" fill="#363636" d="M 836.5,205.5 C 836.178,227.575 836.511,249.575 837.5,271.5C 836.168,260.854 835.501,249.854 835.5,238.5C 835.5,227.328 835.833,216.328 836.5,205.5 Z"/></g>
<g><path style="opacity:0.129" fill="#373737" d="M 559.5,312.5 C 558.502,282.005 558.169,251.338 558.5,220.5C 538.5,220.5 518.5,220.5 498.5,220.5C 498.831,251.338 498.498,282.005 497.5,312.5C 497.5,281.5 497.5,250.5 497.5,219.5C 518.167,219.5 538.833,219.5 559.5,219.5C 559.5,250.5 559.5,281.5 559.5,312.5 Z"/></g>
<g><path style="opacity:0.212" fill="#373737" d="M 158.5,227.5 C 168.833,227.5 179.167,227.5 189.5,227.5C 189.5,241.5 189.5,255.5 189.5,269.5C 188.5,269.5 187.5,269.5 186.5,269.5C 188.454,256.079 189.121,242.412 188.5,228.5C 178.319,228.827 168.319,228.494 158.5,227.5 Z"/></g>
<g><path style="opacity:0.022" fill="#3a3a3a" d="M 879.5,264.5 C 879.923,266.781 879.256,268.448 877.5,269.5C 878.024,267.694 878.691,266.028 879.5,264.5 Z"/></g>
<g><path style="opacity:0.039" fill="#353535" d="M 397.5,267.5 C 398.345,268.671 399.011,270.005 399.5,271.5C 397.824,270.817 397.157,269.483 397.5,267.5 Z"/></g>
<g><path style="opacity:0.395" fill="#949494" d="M 153.5,270.5 C 163.5,270.5 173.5,270.5 183.5,270.5C 178.881,271.828 173.881,272.494 168.5,272.5C 163.119,272.494 158.119,271.828 153.5,270.5 Z"/></g>
<g><path style="opacity:0.127" fill="#353535" d="M 407.5,276.5 C 415.573,275.868 423.24,276.535 430.5,278.5C 422.734,277.863 415.067,277.196 407.5,276.5 Z"/></g>
<g><path style="opacity:0.365" fill="#969696" d="M 685.5,276.5 C 691.5,276.5 697.5,276.5 703.5,276.5C 700.913,277.816 697.913,278.483 694.5,278.5C 691.087,278.483 688.087,277.816 685.5,276.5 Z"/></g>
<g><path style="opacity:0.4" fill="#959595" d="M 849.5,276.5 C 856.167,276.5 862.833,276.5 869.5,276.5C 866.572,277.82 863.239,278.486 859.5,278.5C 855.761,278.486 852.428,277.82 849.5,276.5 Z"/></g>
<g><path style="opacity:0.031" fill="#282828" d="M 86.5,283.5 C 88.2785,284.67 89.2785,286.336 89.5,288.5C 87.7215,287.33 86.7215,285.664 86.5,283.5 Z"/></g>
<g><path style="opacity:0.102" fill="#303030" d="M 350.5,289.5 C 351.744,291.663 352.744,293.997 353.5,296.5C 351.273,294.771 350.273,292.438 350.5,289.5 Z"/></g>
<g><path style="opacity:0.11" fill="#303030" d="M 630.5,289.5 C 632.411,292.993 634.078,296.66 635.5,300.5C 632.501,297.499 630.835,293.832 630.5,289.5 Z"/></g>
<g><path style="opacity:0.253" fill="#979797" d="M 117.5,308.5 C 119.483,308.157 120.817,308.824 121.5,310.5C 119.62,310.771 118.287,310.104 117.5,308.5 Z"/></g>
<g><path style="opacity:0.631" fill="#c5c5c5" d="M 733.5,309.5 C 734.404,310.209 734.737,311.209 734.5,312.5C 745.167,312.5 755.833,312.5 766.5,312.5C 766.5,312.833 766.5,313.167 766.5,313.5C 755.5,313.5 744.5,313.5 733.5,313.5C 733.5,312.167 733.5,310.833 733.5,309.5 Z"/></g>
<g><path style="opacity:0.247" fill="#979797" d="M 841.5,312.5 C 843.483,312.157 844.817,312.824 845.5,314.5C 843.62,314.771 842.287,314.104 841.5,312.5 Z"/></g>
<g><path style="opacity:0.171" fill="#363636" d="M 308.5,311.5 C 308.5,312.5 308.5,313.5 308.5,314.5C 292.83,314.667 277.163,314.5 261.5,314C 260.944,313.617 260.611,313.117 260.5,312.5C 260.833,312.5 261.167,312.5 261.5,312.5C 277.331,314.157 292.997,313.823 308.5,311.5 Z"/></g>
<g><path style="opacity:0.059" fill="#333333" d="M 430.5,311.5 C 430.5,312.5 430.5,313.5 430.5,314.5C 429.5,314.5 428.5,314.5 427.5,314.5C 428.5,313.5 429.5,312.5 430.5,311.5 Z"/></g>
<g><path style="opacity:0.171" fill="#353535" d="M 447.5,311.5 C 448.167,311.5 448.833,311.5 449.5,311.5C 464.798,313.484 480.464,314.151 496.5,313.5C 480.662,314.827 464.662,314.827 448.5,313.5C 448.137,312.817 447.804,312.15 447.5,311.5 Z"/></g>
<g><path style="opacity:0.185" fill="#353535" d="M 732.5,309.5 C 732.833,309.5 733.167,309.5 733.5,309.5C 733.5,310.833 733.5,312.167 733.5,313.5C 744.5,313.5 755.5,313.5 766.5,313.5C 755.346,314.495 744.012,314.828 732.5,314.5C 732.5,312.833 732.5,311.167 732.5,309.5 Z"/></g>
</svg>
